# xmcd
#
# Track frame offsets:
#	150
#	16392
#	35667
#	59893
#	75369
#	95679
#	117502
#	132782
#	151027
#	166744
#	186905
#	207162
#	229484
#	247249
#	268082
#	285598
#	303647
#	320986
#
# Disc length: 4566 seconds
# Revision: 0
# Processed by: cddbd v1.5.2PL0 Copyright (c) Steve Scherf et al.
# Submitted via: dBpowerAMP V12.0
#
DISCID=0c11d412
DTITLE=Various Artist - R and B Best Top Music
DYEAR=2009
DGENRE=Pop
TTITLE0=Trey Songz - I Need A Girl
TTITLE1=Mariah Carey - Obsessed
TTITLE2=Michael Jackson - We Are The World
TTITLE3=Whitney Houston - Million Dollar Bill
TTITLE4=Sarah Connor - Just One Last Dance
TTITLE5=Unknown Artist - I Gotta Feeling
TTITLE6=Michael Jackson - Black Or White
TTITLE7=Leona Lewis - Happy
TTITLE8=Boyonce Knowles - Sweet Dreams
TTITLE9=Whitney Houston - I Look To You
TTITLE10=Sweetbox - With A Love Like You
TTITLE11=Akon - Sorry Blame It On Me
TTITLE12=Amine - Mais Comment Vous Dire
TTITLE13=Mariah Carey - When You Believe
TTITLE14=Whitney Houston - Like I Never Left
TTITLE15=Rihanna - Disturbia
TTITLE16=Unknown Artist - Because Of You
TTITLE17=Sarah Connor - Love Is Color Blind
EXTD=
EXTT0=
EXTT1=
EXTT2=
EXTT3=
EXTT4=
EXTT5=
EXTT6=
EXTT7=
EXTT8=
EXTT9=
EXTT10=
EXTT11=
EXTT12=
EXTT13=
EXTT14=
EXTT15=
EXTT16=
EXTT17=
PLAYORDER=
